<svg class="size-4 text-yellow-500" xmlns="http://www.w3.org/2000/svg" width="1em" height="1em" fill="none" viewBox="0 0 16 16"><circle cx="7.9" cy="8" r="7.12" fill="#D9D9D9"></circle><circle cx="7.9" cy="8" r="7.12" fill="url(#coin_svg__a)"></circle><circle cx="7.9" cy="8" r="7.12" stroke="url(#coin_svg__b)" stroke-linecap="round" stroke-linejoin="round" stroke-width="0.23"></circle><circle cx="7.9" cy="8" r="5.24" stroke="url(#coin_svg__e)" stroke-linecap="round" stroke-linejoin="round" stroke-width="0.31"></circle><g filter="url(#coin_svg__f)"><path fill="url(#coin_svg__g)" d="M9.02 4.78a.6.6 0 0 0-.29-.02l-2.84.53c-.18.04-.22.17-.1.3l1.88 2.2c.11.14.35.22.53.19l2.84-.54c.17-.03.22-.17.1-.3l-1.88-2.2a.6.6 0 0 0-.24-.16m-.04.2c.12.05.23.12.3.2.07.1.1.19.07.26-.03.08-.1.14-.22.16a.74.74 0 0 1-.38-.04.75.75 0 0 1-.32-.2.3.3 0 0 1-.08-.2.2.2 0 0 1 .1-.17.44.44 0 0 1 .23-.06q.15 0 .3.06Zm.71.87c.1.03.19.08.26.14s.11.13.13.2a.2.2 0 0 1-.03.18.3.3 0 0 1-.2.1.74.74 0 0 1-.37-.04.74.74 0 0 1-.32-.2c-.07-.1-.1-.19-.07-.27.03-.07.1-.13.22-.15a.6.6 0 0 1 .18 0c.07 0 .14.01.2.04m-2.93-.43c.12.05.23.12.3.2.07.1.1.19.07.26-.03.08-.1.14-.22.16A.74.74 0 0 1 6.53 6a.74.74 0 0 1-.32-.2.3.3 0 0 1-.08-.2.2.2 0 0 1 .1-.17.44.44 0 0 1 .23-.06c.1 0 .2.02.3.05m3.67 1.3c.13.05.23.12.3.2.07.09.1.18.07.26-.03.07-.1.13-.22.15a.74.74 0 0 1-.37-.03.74.74 0 0 1-.32-.21.3.3 0 0 1-.09-.2.2.2 0 0 1 .1-.16.44.44 0 0 1 .24-.07q.15 0 .3.06Zm-2.95-.43c.1.04.18.09.25.15s.11.13.13.2a.2.2 0 0 1-.03.17.3.3 0 0 1-.19.1.6.6 0 0 1-.18.01.84.84 0 0 1-.52-.25.4.4 0 0 1-.07-.14.2.2 0 0 1 0-.12.2.2 0 0 1 .08-.1.4.4 0 0 1 .14-.06.6.6 0 0 1 .19 0c.06 0 .13.02.2.04M5.54 5.8c-.1-.03-.18.02-.22.14l-.86 2.44a.61.61 0 0 0 .1.55l1.82 2.1c.12.14.26.12.32-.05l.85-2.44a.61.61 0 0 0-.1-.55L5.64 5.88a.26.26 0 0 0-.1-.08m5.57 1.96a.26.26 0 0 0-.13 0l-2.73.5a.61.61 0 0 0-.42.38l-.86 2.43c-.06.17.03.28.21.25l2.73-.52c.18-.03.37-.2.43-.36L11.19 8c.05-.12.01-.21-.08-.24M5.63 6.22c.05.01.1.05.15.1.05.06.1.13.13.22.03.08.04.17.05.26 0 .09 0 .17-.03.23a.3.3 0 0 1-.08.13.2.2 0 0 1-.1.05.2.2 0 0 1-.12-.02.4.4 0 0 1-.12-.1.7.7 0 0 1-.1-.14.86.86 0 0 1-.07-.39.6.6 0 0 1 .03-.17.3.3 0 0 1 .1-.15c.05-.03.1-.04.16-.02m5.15 1.8c.05.03.09.06.1.12a.3.3 0 0 1 0 .18c-.04.1-.12.2-.23.3a.76.76 0 0 1-.33.16c-.11.02-.2 0-.26-.05-.05-.06-.06-.15-.02-.25a.6.6 0 0 1 .12-.2.9.9 0 0 1 .2-.18.7.7 0 0 1 .23-.09c.07-.01.14 0 .2.01Zm-2.56-.86c.12.05.22.12.3.2.07.1.1.18.06.26-.02.08-.1.13-.21.16a.74.74 0 0 1-.38-.04.75.75 0 0 1-.32-.2.3.3 0 0 1-.08-.2.2.2 0 0 1 .1-.17.44.44 0 0 1 .23-.06c.1 0 .2.02.3.05M7 7.82c.05.02.1.05.16.11.04.06.09.13.12.21.03.09.04.18.05.26 0 .1 0 .17-.03.24a.3.3 0 0 1-.08.13.2.2 0 0 1-.1.05A.2.2 0 0 1 7 8.8a.4.4 0 0 1-.12-.1.7.7 0 0 1-.1-.15.86.86 0 0 1-.07-.38.6.6 0 0 1 .03-.17.3.3 0 0 1 .1-.15c.05-.03.1-.04.16-.03m1.7.6c.04.02.08.06.1.1a.3.3 0 0 1-.02.2c-.03.1-.11.2-.22.29a.76.76 0 0 1-.33.17c-.11.02-.2 0-.26-.06-.05-.06-.06-.15-.03-.25a.6.6 0 0 1 .13-.2.9.9 0 0 1 .2-.18.7.7 0 0 1 .23-.09c.07-.01.14 0 .2.02m-2.72-.46c.05.02.1.05.15.11s.1.13.13.21c.03.09.04.18.05.26 0 .1-.01.17-.03.24-.04.1-.1.17-.18.18q-.12.015-.24-.12a.76.76 0 0 1-.15-.34.7.7 0 0 1 .01-.36.3.3 0 0 1 .1-.15c.05-.04.1-.04.16-.03m-1.03.15c.06.02.11.05.16.11s.09.13.12.21c.03.09.05.18.05.26 0 .1 0 .17-.03.24a.3.3 0 0 1-.07.12.2.2 0 0 1-.1.06.2.2 0 0 1-.12-.02.4.4 0 0 1-.12-.1.7.7 0 0 1-.1-.15.86.86 0 0 1-.07-.38.6.6 0 0 1 .03-.17.3.3 0 0 1 .1-.15q.075-.045.15-.03m5.16 1.81c.05.02.08.06.1.11a.3.3 0 0 1-.01.19c-.04.1-.12.2-.22.3a.76.76 0 0 1-.34.16c-.1.02-.2 0-.25-.06-.06-.05-.06-.14-.03-.25a.6.6 0 0 1 .12-.2.9.9 0 0 1 .2-.17.7.7 0 0 1 .24-.1c.07 0 .14 0 .19.02m-3.78-.2c.06.01.11.05.16.1a.9.9 0 0 1 .17.47c0 .1 0 .18-.03.25a.3.3 0 0 1-.07.12.2.2 0 0 1-.1.06.2.2 0 0 1-.12-.02.4.4 0 0 1-.12-.1.7.7 0 0 1-.1-.15.86.86 0 0 1-.07-.38.6.6 0 0 1 .03-.18.3.3 0 0 1 .1-.15c.05-.03.1-.04.15-.02m1.7.6c.05.01.08.05.1.1a.3.3 0 0 1-.01.19c-.04.1-.12.2-.22.3a.76.76 0 0 1-.34.16c-.1.02-.2 0-.25-.05-.06-.06-.07-.15-.03-.25a.6.6 0 0 1 .12-.2.9.9 0 0 1 .2-.18.7.7 0 0 1 .23-.1c.08 0 .14 0 .2.02Z"></path></g><defs><linearGradient id="coin_svg__a" x1="7.9" x2="7.9" y1="1" y2="15" gradientUnits="userSpaceOnUse"><stop stop-color="#F8D07C"></stop><stop offset="1" stop-color="#F7C969"></stop></linearGradient><linearGradient id="coin_svg__b" x1="7.9" x2="7.9" y1="1" y2="15" gradientUnits="userSpaceOnUse"><stop stop-color="#F5BF4C"></stop><stop offset="1" stop-color="#F8D07C"></stop></linearGradient><linearGradient id="coin_svg__d" x1="7.83" x2="7.83" y1="2.6" y2="12.1" gradientUnits="userSpaceOnUse"><stop stop-color="#F5BD47"></stop><stop offset="1" stop-color="#F8D07C"></stop></linearGradient><linearGradient id="coin_svg__e" x1="7.9" x2="7.9" y1="2.39" y2="13.61" gradientUnits="userSpaceOnUse"><stop stop-color="#D69200"></stop><stop offset="0.57" stop-color="#F8D07C"></stop></linearGradient><linearGradient id="coin_svg__g" x1="8.64" x2="7.15" y1="5.87" y2="10.13" gradientUnits="userSpaceOnUse"><stop stop-color="#F4B124"></stop><stop offset="1" stop-color="#E09B0B"></stop></linearGradient><filter id="coin_svg__c" width="10.8" height="12.36" x="2.5" y="2.6" color-interpolation-filters="sRGB" filterUnits="userSpaceOnUse"><feFlood flood-opacity="0" result="BackgroundImageFix"></feFlood><feBlend in="SourceGraphic" in2="BackgroundImageFix" result="shape"></feBlend><feColorMatrix in="SourceAlpha" result="hardAlpha" values="0 0 0 0 0 0 0 0 0 0 0 0 0 0 0 0 0 0 127 0"></feColorMatrix><feOffset dy="1.56"></feOffset><feGaussianBlur stdDeviation="0.58"></feGaussianBlur><feComposite in2="hardAlpha" k2="-1" k3="1" operator="arithmetic"></feComposite><feColorMatrix values="0 0 0 0 0.906628 0 0 0 0 0.6904 0 0 0 0 0.233372 0 0 0 0.78 0"></feColorMatrix><feBlend in2="shape" result="effect1_innerShadow_4140_306"></feBlend><feColorMatrix in="SourceAlpha" result="hardAlpha" values="0 0 0 0 0 0 0 0 0 0 0 0 0 0 0 0 0 0 127 0"></feColorMatrix><feOffset dy="1.56"></feOffset><feGaussianBlur stdDeviation="1.05"></feGaussianBlur><feComposite in2="hardAlpha" k2="-1" k3="1" operator="arithmetic"></feComposite><feColorMatrix values="0 0 0 0 0.863639 0 0 0 0 0.610979 0 0 0 0 0 0 0 0 0.56 0"></feColorMatrix><feBlend in2="effect1_innerShadow_4140_306" result="effect2_innerShadow_4140_306"></feBlend></filter><filter id="coin_svg__f" width="6.77" height="6.89" x="4.44" y="4.75" color-interpolation-filters="sRGB" filterUnits="userSpaceOnUse"><feFlood flood-opacity="0" result="BackgroundImageFix"></feFlood><feBlend in="SourceGraphic" in2="BackgroundImageFix" result="shape"></feBlend><feColorMatrix in="SourceAlpha" result="hardAlpha" values="0 0 0 0 0 0 0 0 0 0 0 0 0 0 0 0 0 0 127 0"></feColorMatrix><feOffset dy="0.31"></feOffset><feGaussianBlur stdDeviation="0.23"></feGaussianBlur><feComposite in2="hardAlpha" k2="-1" k3="1" operator="arithmetic"></feComposite><feColorMatrix values="0 0 0 0 0.608333 0 0 0 0 0.411942 0 0 0 0 0 0 0 0 0.16 0"></feColorMatrix><feBlend in2="shape" result="effect1_innerShadow_4140_306"></feBlend></filter></defs></svg>