<svg width="283" height="73" viewBox="0 0 283 73" fill="none" xmlns="http://www.w3.org/2000/svg">
<path fill-rule="evenodd" clip-rule="evenodd" d="M42.8665 17.3015C41.9292 15.7198 40.2348 14.7415 38.3963 14.7207L19.0721 14.5013C17.1696 14.4798 15.4035 15.4861 14.4522 17.1338L5.1896 33.1774C4.24572 34.8123 4.24926 36.8273 5.1989 38.4589L14.9324 55.1818C15.8685 56.7902 17.5841 57.785 19.445 57.7985L38.9444 57.9399C40.8441 57.9536 42.6039 56.9431 43.5495 55.2954L52.7618 39.243C53.7064 37.5971 53.6922 35.5703 52.7248 33.9377L42.8665 17.3015ZM38.4362 11.2106C41.5002 11.2453 44.3243 12.8758 45.8864 15.512L55.7448 32.1481C57.3571 34.8691 57.3807 38.2471 55.8064 40.9902L46.5941 57.0426C45.0181 59.7888 42.0851 61.4731 38.919 61.4501L19.4196 61.3087C16.318 61.2862 13.4587 59.6283 11.8985 56.9477L2.16503 40.2247C0.582312 37.5055 0.576402 34.147 2.14954 31.4222L11.4122 15.3787C12.9976 12.6325 15.9412 10.9552 19.1119 10.9912L38.4362 11.2106Z" fill="url(#paint0_linear_16_130)"/>
<mask id="path-2-inside-1_16_130" fill="white">
<path d="M39.3116 17.6733C38.7713 17.3614 38.161 17.1704 37.6026 17.171L19.7756 17.1857C18.6587 17.1866 18.2166 17.9525 18.7742 18.9202L27.675 34.3662C28.2326 35.3339 29.5565 36.0983 30.6733 36.0973L48.5003 36.0826C49.6172 36.0817 50.0594 35.3158 49.5017 34.3482L40.6009 18.9022C40.3222 18.4181 39.8518 17.9852 39.3116 17.6733ZM38.8468 18.8541C38.8468 18.8541 38.8469 18.8541 38.8469 18.8542C39.5348 19.2756 40.0965 19.8303 40.4214 20.409C40.7575 21.0191 40.8025 21.6055 40.5466 22.0408C40.2907 22.4761 39.7547 22.725 39.0551 22.7333C38.3555 22.7417 37.5489 22.5088 36.8108 22.0854C36.0728 21.6619 35.4629 21.0822 35.1139 20.4722C34.8521 20.006 34.758 19.5486 34.8438 19.1602C34.9297 18.7718 35.1915 18.4704 35.595 18.2955C35.9985 18.1205 36.5249 18.0803 37.1051 18.18C37.6853 18.2797 38.2924 18.5147 38.8466 18.8541C38.8467 18.8541 38.8467 18.8542 38.8468 18.8541V18.8541ZM42.1803 24.8857C42.7269 25.2076 43.2035 25.6171 43.5507 26.0629C43.8979 26.5088 44.1002 26.9712 44.1323 27.3926C44.1645 27.8139 44.0251 28.1754 43.7315 28.4319C43.438 28.6884 43.0033 28.8286 42.4817 28.8348C41.7779 28.8433 40.9659 28.6075 40.2245 28.1795C39.4831 27.7514 38.873 27.1661 38.5283 26.5524C38.1836 25.9386 38.1326 25.3467 38.3866 24.9067C38.6406 24.4668 39.1787 24.2149 39.8825 24.2065C40.2376 24.2023 40.6239 24.2602 41.0186 24.3769C41.4132 24.4936 41.8083 24.6666 42.1803 24.8857ZM24.8755 18.9752C24.8756 18.9752 24.8756 18.9752 24.8757 18.9753C25.5636 19.3966 26.1254 19.9514 26.4504 20.5301C26.795 21.1438 26.846 21.7358 26.5919 22.1757C26.3379 22.6156 25.7998 22.8675 25.0959 22.8759C24.3921 22.8842 23.5801 22.6485 22.8387 22.2204C22.0973 21.7923 21.4872 21.207 21.1425 20.5933C20.8807 20.127 20.7865 19.6696 20.8724 19.2812C20.9582 18.8927 21.2201 18.5912 21.6236 18.4163C22.0271 18.2414 22.5535 18.2011 23.1338 18.3009C23.714 18.4006 24.3211 18.6356 24.8754 18.9751L24.8755 18.9752ZM45.6758 31.0145C45.6759 31.0146 45.6759 31.0146 45.676 31.0146C46.3639 31.436 46.9257 31.9907 47.2507 32.5694C47.5912 33.1815 47.6393 33.7708 47.3844 34.2085C47.1294 34.6462 46.5923 34.8966 45.8904 34.905C45.1886 34.9133 44.3792 34.6789 43.6394 34.253C42.8996 33.8272 42.2896 33.2445 41.9429 32.6326C41.6811 32.1663 41.587 31.7089 41.6728 31.3205C41.7587 30.9321 42.0205 30.6307 42.4241 30.4558C42.8276 30.2809 43.354 30.2406 43.9342 30.3403C44.5144 30.44 45.1215 30.675 45.6758 31.0145ZM28.2345 25.052C28.781 25.374 29.2576 25.7834 29.6047 26.2292C29.9517 26.675 30.154 27.1375 30.1861 27.5587C30.2183 27.98 30.0789 28.3415 29.7853 28.598C29.4918 28.8545 29.0572 28.9946 28.5357 29.0009C28.1868 29.0079 27.8066 28.9543 27.4172 28.8432C27.0278 28.7321 26.6368 28.5656 26.267 28.3534C25.8971 28.1412 25.5556 27.8875 25.2623 27.607C24.9689 27.3264 24.7295 27.0246 24.5578 26.7189C24.3861 26.4132 24.2856 26.1097 24.2621 25.8259C24.2385 25.5421 24.2924 25.2837 24.4206 25.0656C24.5489 24.8474 24.7489 24.6739 25.0091 24.555C25.2693 24.4361 25.5846 24.3742 25.9367 24.3728C26.2918 24.3686 26.6781 24.4265 27.0728 24.5432C27.4674 24.6599 27.8625 24.8329 28.2345 25.052ZM17.0364 19.8692C17.0364 19.8693 17.0363 19.8693 17.0363 19.8693C16.5408 19.5652 15.9719 19.7606 15.5706 20.4555L7.60531 34.2519C7.04707 35.2188 7.0471 36.7482 7.60518 37.7151L16.1739 52.5597C16.732 53.5266 17.615 53.5266 18.1732 52.5598L26.1387 38.7632C26.697 37.7963 26.6968 36.2671 26.1387 35.3001L17.57 20.4556C17.4132 20.1837 17.2304 19.9882 17.0366 19.8692C17.0365 19.8692 17.0365 19.8692 17.0364 19.8692V19.8692ZM48.5992 38.0925C48.5992 38.0924 48.5992 38.0924 48.5991 38.0923C48.3993 37.984 48.1388 37.9234 47.8249 37.9235L30.6843 37.9247C29.5679 37.9249 28.2433 38.6896 27.6851 39.6565L19.7196 53.4532C19.1614 54.4199 19.6031 55.1844 20.7196 55.1842L37.8601 55.1833C38.9765 55.1831 40.3006 54.4184 40.8589 53.4515L48.8244 39.6548C49.2255 38.9601 49.1103 38.3698 48.5992 38.0926C48.5991 38.0926 48.5991 38.0925 48.5992 38.0925V38.0925ZM17.1209 22.4762C17.4323 22.6283 17.7182 22.9187 17.9496 23.3179C18.1811 23.7172 18.3499 24.2112 18.439 24.75C18.5282 25.2889 18.5344 25.8535 18.4572 26.3868C18.38 26.9201 18.2221 27.4032 17.9993 27.7874C17.8336 28.0752 17.6354 28.3013 17.4162 28.4529C17.1969 28.6045 16.9609 28.6785 16.7216 28.6708C16.4823 28.6631 16.2444 28.5737 16.0215 28.4079C15.7987 28.242 15.5952 28.0029 15.4227 27.7042C15.2502 27.4054 15.1122 27.053 15.0164 26.667C14.9207 26.281 14.8691 25.8689 14.8646 25.4545C14.8601 25.04 14.9029 24.6312 14.9904 24.2515C15.0779 23.8718 15.2085 23.5286 15.3747 23.2415C15.5955 22.8573 15.8731 22.5843 16.1796 22.45C16.4861 22.3157 16.8107 22.3247 17.1209 22.4762ZM46.2995 39.3225C46.5858 39.5154 46.756 39.792 46.7929 40.1246C46.8299 40.4571 46.7323 40.834 46.51 41.2175C46.1745 41.7971 45.5768 42.3527 44.8482 42.7623C44.1196 43.1719 43.3197 43.402 42.6242 43.402C41.9286 43.402 41.3943 43.1719 41.1387 42.7623C40.8831 42.3527 40.927 41.797 41.2608 41.2174C41.4821 40.8324 41.8215 40.4541 42.2448 40.1205C42.668 39.787 43.1601 39.5102 43.6713 39.3179C44.1825 39.1257 44.6948 39.0249 45.1563 39.0257C45.6178 39.0265 46.0121 39.1289 46.2996 39.3226L46.2995 39.3225ZM31.7299 31.1807C31.73 31.1807 31.73 31.1807 31.73 31.1808C32.4179 31.6021 32.9796 32.1568 33.3046 32.7355C33.6406 33.3456 33.6856 33.9321 33.4298 34.3673C33.1739 34.8026 32.6378 35.0515 31.9382 35.0599C31.2386 35.0682 30.4321 34.8353 29.694 34.4119C28.9559 33.9884 28.346 33.4087 27.997 32.7988C27.7352 32.3324 27.641 31.8751 27.7269 31.4866C27.8127 31.0982 28.0745 30.7967 28.4781 30.6218C28.8816 30.4469 29.408 30.4066 29.9883 30.5063C30.5685 30.606 31.1756 30.841 31.7299 31.1805C31.7299 31.1806 31.7299 31.1806 31.7299 31.1807V31.1807ZM23.6531 33.7906C23.9645 33.9427 24.2504 34.2331 24.4819 34.6323C24.7133 35.0316 24.8821 35.5256 24.9713 36.0644C25.0604 36.6033 25.0667 37.1679 24.9895 37.7012C24.9123 38.2345 24.7543 38.7176 24.5316 39.1018C24.3658 39.3896 24.1676 39.6157 23.9484 39.7673C23.7292 39.9189 23.4931 39.9929 23.2538 39.9852C23.0145 39.9775 22.7767 39.8881 22.5538 39.7223C22.3309 39.5564 22.1274 39.3173 21.955 39.0185C21.7825 38.7198 21.6444 38.3674 21.5487 37.9814C21.4529 37.5954 21.4013 37.1833 21.3968 36.7689C21.3924 36.3544 21.4351 35.9456 21.5226 35.5659C21.6102 35.1862 21.7407 34.843 21.9069 34.5559C22.1278 34.1717 22.4054 33.8987 22.7119 33.7644C23.0183 33.6301 23.3429 33.6391 23.6531 33.7906ZM33.2347 39.3225C33.521 39.5154 33.6912 39.792 33.7282 40.1246C33.7651 40.4572 33.6675 40.8341 33.4452 41.2175C33.1098 41.7971 32.5121 42.3528 31.7835 42.7624C31.0549 43.172 30.2549 43.4021 29.5594 43.4021C28.8639 43.402 28.3296 43.172 28.0739 42.7623C27.8183 42.3527 27.8622 41.7971 28.196 41.2175C28.4173 40.8325 28.7567 40.4541 29.18 40.1206C29.6033 39.7871 30.0953 39.5102 30.6066 39.318C31.1178 39.1257 31.63 39.0249 32.0915 39.0258C32.553 39.0266 32.9474 39.129 33.2348 39.3226L33.2347 39.3225ZM17.3059 33.4699C17.6173 33.622 17.9032 33.9124 18.1347 34.3116C18.3661 34.7109 18.5349 35.2049 18.6241 35.7437C18.7132 36.2826 18.7195 36.8472 18.6423 37.3805C18.565 37.9138 18.4071 38.3969 18.1843 38.7811C17.8493 39.36 17.39 39.6758 16.9075 39.6592C16.4249 39.6427 15.9585 39.295 15.6107 38.6927C15.263 38.0903 15.0622 37.2825 15.0527 36.4467C15.0431 35.6109 15.2255 34.8155 15.5597 34.2352C15.7806 33.851 16.0582 33.578 16.3646 33.4437C16.6711 33.3094 16.9957 33.3184 17.3059 33.4699ZM10.9228 33.2118C11.2342 33.3639 11.5201 33.6543 11.7516 34.0535C11.983 34.4528 12.1519 34.9468 12.241 35.4857C12.3301 36.0245 12.3364 36.5892 12.2591 37.1225C12.1819 37.6558 12.024 38.1389 11.8012 38.523C11.6354 38.8108 11.4373 39.037 11.218 39.1886C10.9988 39.3402 10.7628 39.4142 10.5235 39.4065C10.2842 39.3987 10.0463 39.3094 9.82343 39.1435C9.60055 38.9777 9.39706 38.7385 9.2246 38.4398C9.05213 38.1411 8.91406 37.7887 8.8183 37.4026C8.72253 37.0166 8.67094 36.6046 8.66648 36.1901C8.66202 35.7757 8.70477 35.3669 8.79229 34.9872C8.87981 34.6074 9.01039 34.2642 9.17655 33.9771C9.39743 33.5929 9.67503 33.3199 9.98152 33.1856C10.288 33.0513 10.6126 33.0603 10.9228 33.2118ZM40.1014 50.0581C40.3877 50.251 40.5579 50.5276 40.5948 50.8602C40.6317 51.1928 40.5341 51.5696 40.3118 51.9531C39.9763 52.5327 39.3786 53.0883 38.65 53.4979C37.9214 53.9075 37.1215 54.1376 36.4259 54.1376C35.7304 54.1376 35.1961 53.9075 34.9405 53.4979C34.6849 53.0883 34.7288 52.5326 35.0626 51.953C35.2839 51.568 35.6233 51.1897 36.0465 50.8561C36.4698 50.5226 36.9619 50.2457 37.4731 50.0535C37.9843 49.8612 38.4966 49.7604 38.9581 49.7612C39.4196 49.762 39.814 49.8644 40.1014 50.0581ZM17.4552 44.5262C17.7666 44.6783 18.0525 44.9686 18.2839 45.3679C18.5154 45.7671 18.6842 46.2611 18.7733 46.8C18.8625 47.3388 18.8687 47.9034 18.7915 48.4367C18.7143 48.9701 18.5564 49.4532 18.3336 49.8373C18.1679 50.1251 17.9697 50.3512 17.7505 50.5028C17.5312 50.6544 17.2952 50.7285 17.0559 50.7207C16.8166 50.713 16.5787 50.6237 16.3558 50.4578C16.133 50.2919 15.9295 50.0528 15.757 49.7541C15.5845 49.4554 15.4465 49.1029 15.3507 48.7169C15.255 48.3309 15.2034 47.9189 15.1989 47.5044C15.1944 47.0899 15.2372 46.6812 15.3247 46.3014C15.4122 45.9217 15.5428 45.5785 15.709 45.2914C15.9299 44.9072 16.2074 44.6342 16.5139 44.4999C16.8204 44.3656 17.145 44.3747 17.4552 44.5262ZM27.0367 50.0581C27.323 50.251 27.4932 50.5275 27.5301 50.8601C27.567 51.1927 27.4694 51.5696 27.2471 51.953C26.9116 52.5326 26.314 53.0882 25.5854 53.4978C24.8568 53.9074 24.0568 54.1375 23.3613 54.1375C22.6657 54.1375 22.1315 53.9074 21.8758 53.4978C21.6202 53.0882 21.6641 52.5325 21.9979 51.9529C22.2192 51.5679 22.5586 51.1896 22.9819 50.8561C23.4051 50.5225 23.8972 50.2457 24.4085 50.0534C24.9197 49.8612 25.4319 49.7604 25.8934 49.7612C26.3549 49.762 26.7493 49.8644 27.0367 50.0581Z"/>
</mask>
<path d="M39.3116 17.6733C38.7713 17.3614 38.161 17.1704 37.6026 17.171L19.7756 17.1857C18.6587 17.1866 18.2166 17.9525 18.7742 18.9202L27.675 34.3662C28.2326 35.3339 29.5565 36.0983 30.6733 36.0973L48.5003 36.0826C49.6172 36.0817 50.0594 35.3158 49.5017 34.3482L40.6009 18.9022C40.3222 18.4181 39.8518 17.9852 39.3116 17.6733ZM38.8468 18.8541C38.8468 18.8541 38.8469 18.8541 38.8469 18.8542C39.5348 19.2756 40.0965 19.8303 40.4214 20.409C40.7575 21.0191 40.8025 21.6055 40.5466 22.0408C40.2907 22.4761 39.7547 22.725 39.0551 22.7333C38.3555 22.7417 37.5489 22.5088 36.8108 22.0854C36.0728 21.6619 35.4629 21.0822 35.1139 20.4722C34.8521 20.006 34.758 19.5486 34.8438 19.1602C34.9297 18.7718 35.1915 18.4704 35.595 18.2955C35.9985 18.1205 36.5249 18.0803 37.1051 18.18C37.6853 18.2797 38.2924 18.5147 38.8466 18.8541C38.8467 18.8541 38.8467 18.8542 38.8468 18.8541V18.8541ZM42.1803 24.8857C42.7269 25.2076 43.2035 25.6171 43.5507 26.0629C43.8979 26.5088 44.1002 26.9712 44.1323 27.3926C44.1645 27.8139 44.0251 28.1754 43.7315 28.4319C43.438 28.6884 43.0033 28.8286 42.4817 28.8348C41.7779 28.8433 40.9659 28.6075 40.2245 28.1795C39.4831 27.7514 38.873 27.1661 38.5283 26.5524C38.1836 25.9386 38.1326 25.3467 38.3866 24.9067C38.6406 24.4668 39.1787 24.2149 39.8825 24.2065C40.2376 24.2023 40.6239 24.2602 41.0186 24.3769C41.4132 24.4936 41.8083 24.6666 42.1803 24.8857ZM24.8755 18.9752C24.8756 18.9752 24.8756 18.9752 24.8757 18.9753C25.5636 19.3966 26.1254 19.9514 26.4504 20.5301C26.795 21.1438 26.846 21.7358 26.5919 22.1757C26.3379 22.6156 25.7998 22.8675 25.0959 22.8759C24.3921 22.8842 23.5801 22.6485 22.8387 22.2204C22.0973 21.7923 21.4872 21.207 21.1425 20.5933C20.8807 20.127 20.7865 19.6696 20.8724 19.2812C20.9582 18.8927 21.2201 18.5912 21.6236 18.4163C22.0271 18.2414 22.5535 18.2011 23.1338 18.3009C23.714 18.4006 24.3211 18.6356 24.8754 18.9751L24.8755 18.9752ZM45.6758 31.0145C45.6759 31.0146 45.6759 31.0146 45.676 31.0146C46.3639 31.436 46.9257 31.9907 47.2507 32.5694C47.5912 33.1815 47.6393 33.7708 47.3844 34.2085C47.1294 34.6462 46.5923 34.8966 45.8904 34.905C45.1886 34.9133 44.3792 34.6789 43.6394 34.253C42.8996 33.8272 42.2896 33.2445 41.9429 32.6326C41.6811 32.1663 41.587 31.7089 41.6728 31.3205C41.7587 30.9321 42.0205 30.6307 42.4241 30.4558C42.8276 30.2809 43.354 30.2406 43.9342 30.3403C44.5144 30.44 45.1215 30.675 45.6758 31.0145ZM28.2345 25.052C28.781 25.374 29.2576 25.7834 29.6047 26.2292C29.9517 26.675 30.154 27.1375 30.1861 27.5587C30.2183 27.98 30.0789 28.3415 29.7853 28.598C29.4918 28.8545 29.0572 28.9946 28.5357 29.0009C28.1868 29.0079 27.8066 28.9543 27.4172 28.8432C27.0278 28.7321 26.6368 28.5656 26.267 28.3534C25.8971 28.1412 25.5556 27.8875 25.2623 27.607C24.9689 27.3264 24.7295 27.0246 24.5578 26.7189C24.3861 26.4132 24.2856 26.1097 24.2621 25.8259C24.2385 25.5421 24.2924 25.2837 24.4206 25.0656C24.5489 24.8474 24.7489 24.6739 25.0091 24.555C25.2693 24.4361 25.5846 24.3742 25.9367 24.3728C26.2918 24.3686 26.6781 24.4265 27.0728 24.5432C27.4674 24.6599 27.8625 24.8329 28.2345 25.052ZM17.0364 19.8692C17.0364 19.8693 17.0363 19.8693 17.0363 19.8693C16.5408 19.5652 15.9719 19.7606 15.5706 20.4555L7.60531 34.2519C7.04707 35.2188 7.0471 36.7482 7.60518 37.7151L16.1739 52.5597C16.732 53.5266 17.615 53.5266 18.1732 52.5598L26.1387 38.7632C26.697 37.7963 26.6968 36.2671 26.1387 35.3001L17.57 20.4556C17.4132 20.1837 17.2304 19.9882 17.0366 19.8692C17.0365 19.8692 17.0365 19.8692 17.0364 19.8692V19.8692ZM48.5992 38.0925C48.5992 38.0924 48.5992 38.0924 48.5991 38.0923C48.3993 37.984 48.1388 37.9234 47.8249 37.9235L30.6843 37.9247C29.5679 37.9249 28.2433 38.6896 27.6851 39.6565L19.7196 53.4532C19.1614 54.4199 19.6031 55.1844 20.7196 55.1842L37.8601 55.1833C38.9765 55.1831 40.3006 54.4184 40.8589 53.4515L48.8244 39.6548C49.2255 38.9601 49.1103 38.3698 48.5992 38.0926C48.5991 38.0926 48.5991 38.0925 48.5992 38.0925V38.0925ZM17.1209 22.4762C17.4323 22.6283 17.7182 22.9187 17.9496 23.3179C18.1811 23.7172 18.3499 24.2112 18.439 24.75C18.5282 25.2889 18.5344 25.8535 18.4572 26.3868C18.38 26.9201 18.2221 27.4032 17.9993 27.7874C17.8336 28.0752 17.6354 28.3013 17.4162 28.4529C17.1969 28.6045 16.9609 28.6785 16.7216 28.6708C16.4823 28.6631 16.2444 28.5737 16.0215 28.4079C15.7987 28.242 15.5952 28.0029 15.4227 27.7042C15.2502 27.4054 15.1122 27.053 15.0164 26.667C14.9207 26.281 14.8691 25.8689 14.8646 25.4545C14.8601 25.04 14.9029 24.6312 14.9904 24.2515C15.0779 23.8718 15.2085 23.5286 15.3747 23.2415C15.5955 22.8573 15.8731 22.5843 16.1796 22.45C16.4861 22.3157 16.8107 22.3247 17.1209 22.4762ZM46.2995 39.3225C46.5858 39.5154 46.756 39.792 46.7929 40.1246C46.8299 40.4571 46.7323 40.834 46.51 41.2175C46.1745 41.7971 45.5768 42.3527 44.8482 42.7623C44.1196 43.1719 43.3197 43.402 42.6242 43.402C41.9286 43.402 41.3943 43.1719 41.1387 42.7623C40.8831 42.3527 40.927 41.797 41.2608 41.2174C41.4821 40.8324 41.8215 40.4541 42.2448 40.1205C42.668 39.787 43.1601 39.5102 43.6713 39.3179C44.1825 39.1257 44.6948 39.0249 45.1563 39.0257C45.6178 39.0265 46.0121 39.1289 46.2996 39.3226L46.2995 39.3225ZM31.7299 31.1807C31.73 31.1807 31.73 31.1807 31.73 31.1808C32.4179 31.6021 32.9796 32.1568 33.3046 32.7355C33.6406 33.3456 33.6856 33.9321 33.4298 34.3673C33.1739 34.8026 32.6378 35.0515 31.9382 35.0599C31.2386 35.0682 30.4321 34.8353 29.694 34.4119C28.9559 33.9884 28.346 33.4087 27.997 32.7988C27.7352 32.3324 27.641 31.8751 27.7269 31.4866C27.8127 31.0982 28.0745 30.7967 28.4781 30.6218C28.8816 30.4469 29.408 30.4066 29.9883 30.5063C30.5685 30.606 31.1756 30.841 31.7299 31.1805C31.7299 31.1806 31.7299 31.1806 31.7299 31.1807V31.1807ZM23.6531 33.7906C23.9645 33.9427 24.2504 34.2331 24.4819 34.6323C24.7133 35.0316 24.8821 35.5256 24.9713 36.0644C25.0604 36.6033 25.0667 37.1679 24.9895 37.7012C24.9123 38.2345 24.7543 38.7176 24.5316 39.1018C24.3658 39.3896 24.1676 39.6157 23.9484 39.7673C23.7292 39.9189 23.4931 39.9929 23.2538 39.9852C23.0145 39.9775 22.7767 39.8881 22.5538 39.7223C22.3309 39.5564 22.1274 39.3173 21.955 39.0185C21.7825 38.7198 21.6444 38.3674 21.5487 37.9814C21.4529 37.5954 21.4013 37.1833 21.3968 36.7689C21.3924 36.3544 21.4351 35.9456 21.5226 35.5659C21.6102 35.1862 21.7407 34.843 21.9069 34.5559C22.1278 34.1717 22.4054 33.8987 22.7119 33.7644C23.0183 33.6301 23.3429 33.6391 23.6531 33.7906ZM33.2347 39.3225C33.521 39.5154 33.6912 39.792 33.7282 40.1246C33.7651 40.4572 33.6675 40.8341 33.4452 41.2175C33.1098 41.7971 32.5121 42.3528 31.7835 42.7624C31.0549 43.172 30.2549 43.4021 29.5594 43.4021C28.8639 43.402 28.3296 43.172 28.0739 42.7623C27.8183 42.3527 27.8622 41.7971 28.196 41.2175C28.4173 40.8325 28.7567 40.4541 29.18 40.1206C29.6033 39.7871 30.0953 39.5102 30.6066 39.318C31.1178 39.1257 31.63 39.0249 32.0915 39.0258C32.553 39.0266 32.9474 39.129 33.2348 39.3226L33.2347 39.3225ZM17.3059 33.4699C17.6173 33.622 17.9032 33.9124 18.1347 34.3116C18.3661 34.7109 18.5349 35.2049 18.6241 35.7437C18.7132 36.2826 18.7195 36.8472 18.6423 37.3805C18.565 37.9138 18.4071 38.3969 18.1843 38.7811C17.8493 39.36 17.39 39.6758 16.9075 39.6592C16.4249 39.6427 15.9585 39.295 15.6107 38.6927C15.263 38.0903 15.0622 37.2825 15.0527 36.4467C15.0431 35.6109 15.2255 34.8155 15.5597 34.2352C15.7806 33.851 16.0582 33.578 16.3646 33.4437C16.6711 33.3094 16.9957 33.3184 17.3059 33.4699ZM10.9228 33.2118C11.2342 33.3639 11.5201 33.6543 11.7516 34.0535C11.983 34.4528 12.1519 34.9468 12.241 35.4857C12.3301 36.0245 12.3364 36.5892 12.2591 37.1225C12.1819 37.6558 12.024 38.1389 11.8012 38.523C11.6354 38.8108 11.4373 39.037 11.218 39.1886C10.9988 39.3402 10.7628 39.4142 10.5235 39.4065C10.2842 39.3987 10.0463 39.3094 9.82343 39.1435C9.60055 38.9777 9.39706 38.7385 9.2246 38.4398C9.05213 38.1411 8.91406 37.7887 8.8183 37.4026C8.72253 37.0166 8.67094 36.6046 8.66648 36.1901C8.66202 35.7757 8.70477 35.3669 8.79229 34.9872C8.87981 34.6074 9.01039 34.2642 9.17655 33.9771C9.39743 33.5929 9.67503 33.3199 9.98152 33.1856C10.288 33.0513 10.6126 33.0603 10.9228 33.2118ZM40.1014 50.0581C40.3877 50.251 40.5579 50.5276 40.5948 50.8602C40.6317 51.1928 40.5341 51.5696 40.3118 51.9531C39.9763 52.5327 39.3786 53.0883 38.65 53.4979C37.9214 53.9075 37.1215 54.1376 36.4259 54.1376C35.7304 54.1376 35.1961 53.9075 34.9405 53.4979C34.6849 53.0883 34.7288 52.5326 35.0626 51.953C35.2839 51.568 35.6233 51.1897 36.0465 50.8561C36.4698 50.5226 36.9619 50.2457 37.4731 50.0535C37.9843 49.8612 38.4966 49.7604 38.9581 49.7612C39.4196 49.762 39.814 49.8644 40.1014 50.0581ZM17.4552 44.5262C17.7666 44.6783 18.0525 44.9686 18.2839 45.3679C18.5154 45.7671 18.6842 46.2611 18.7733 46.8C18.8625 47.3388 18.8687 47.9034 18.7915 48.4367C18.7143 48.9701 18.5564 49.4532 18.3336 49.8373C18.1679 50.1251 17.9697 50.3512 17.7505 50.5028C17.5312 50.6544 17.2952 50.7285 17.0559 50.7207C16.8166 50.713 16.5787 50.6237 16.3558 50.4578C16.133 50.2919 15.9295 50.0528 15.757 49.7541C15.5845 49.4554 15.4465 49.1029 15.3507 48.7169C15.255 48.3309 15.2034 47.9189 15.1989 47.5044C15.1944 47.0899 15.2372 46.6812 15.3247 46.3014C15.4122 45.9217 15.5428 45.5785 15.709 45.2914C15.9299 44.9072 16.2074 44.6342 16.5139 44.4999C16.8204 44.3656 17.145 44.3747 17.4552 44.5262ZM27.0367 50.0581C27.323 50.251 27.4932 50.5275 27.5301 50.8601C27.567 51.1927 27.4694 51.5696 27.2471 51.953C26.9116 52.5326 26.314 53.0882 25.5854 53.4978C24.8568 53.9074 24.0568 54.1375 23.3613 54.1375C22.6657 54.1375 22.1315 53.9074 21.8758 53.4978C21.6202 53.0882 21.6641 52.5325 21.9979 51.9529C22.2192 51.5679 22.5586 51.1896 22.9819 50.8561C23.4051 50.5225 23.8972 50.2457 24.4085 50.0534C24.9197 49.8612 25.4319 49.7604 25.8934 49.7612C26.3549 49.762 26.7493 49.8644 27.0367 50.0581Z" fill="url(#paint1_linear_16_130)" stroke="url(#paint2_linear_16_130)" stroke-width="7.02069" mask="url(#path-2-inside-1_16_130)"/>
<path d="M70.329 46.1478L73.2225 30.3458C74.0431 25.6884 75.3819 23.6924 81.6871 23.6924H98.6594C103.021 23.6924 104.792 24.7735 104.792 27.8923C104.792 28.5577 104.662 29.3478 104.533 30.2211L104.058 32.9656C103.971 33.5478 103.539 33.8805 102.892 33.8805H96.4137C95.7659 33.8805 95.5068 33.5478 95.5931 32.9656L95.8091 31.6765C95.8522 31.5517 95.8522 31.3854 95.8522 31.3022C95.8522 30.6785 95.4636 30.3874 94.643 30.3874H85.2716C82.4644 30.3874 81.8598 30.8032 81.428 33.0488L79.5278 43.4448C79.4414 43.9022 79.3982 44.2765 79.3982 44.5676C79.3982 45.8567 80.1324 46.1062 82.3781 46.1062H91.7495C92.7428 46.1062 93.2611 45.6903 93.3906 44.8171L93.6497 43.528C93.7361 42.9458 94.168 42.6131 94.8158 42.6131H101.294C101.942 42.6131 102.201 42.9458 102.114 43.528L101.596 46.2725C100.689 51.1794 99.955 52.8012 93.3474 52.8012H76.3752C72.1429 52.8012 70.1131 51.3874 70.1131 48.1438C70.1131 47.52 70.1995 46.8547 70.329 46.1478Z" fill="url(#paint3_linear_16_130)"/>
<path d="M114.698 46.1062H126.445C127.87 46.1062 128.388 45.6903 128.561 44.6507L128.906 42.7795C128.95 42.6131 128.95 42.4884 128.95 42.3636C128.95 41.6151 128.518 41.324 127.309 41.324H113.316C108.997 41.324 107.097 39.9102 107.097 36.6666C107.097 36.0844 107.184 35.4191 107.313 34.6706L108.134 30.3458C108.954 25.6884 110.163 23.6924 116.555 23.6924H133.484C137.803 23.6924 139.573 24.7735 139.573 27.8923C139.573 28.5577 139.487 29.3478 139.314 30.2211L139.012 31.926C138.926 32.5082 138.494 32.8409 137.846 32.8409H131.368C130.72 32.8409 130.461 32.5082 130.548 31.926L130.591 31.6765C130.634 31.4686 130.634 31.3854 130.634 31.2607C130.634 30.6785 130.288 30.3874 129.425 30.3874H118.714C117.289 30.3874 116.771 30.8032 116.555 31.8428L116.253 33.4646C116.21 33.631 116.21 33.7557 116.21 33.922C116.21 34.629 116.641 34.9201 117.851 34.9201H131.843C136.119 34.9201 138.062 36.3339 138.062 39.5359C138.062 40.1597 137.976 40.825 137.846 41.5735L137.025 46.1478C136.162 50.8052 134.996 52.8012 128.604 52.8012H110.682C106.32 52.8012 104.549 51.72 104.549 48.6428C104.549 47.9359 104.636 47.1458 104.808 46.2725L105.111 44.5676C105.24 43.9854 105.629 43.6527 106.277 43.6527H112.755C113.359 43.6527 113.705 43.9854 113.575 44.5676L113.532 44.7755C113.489 44.9418 113.489 45.0666 113.489 45.1913C113.489 45.8151 113.834 46.1062 114.698 46.1062Z" fill="url(#paint4_linear_16_130)"/>
<path d="M166.065 30.3874H155.787C152.98 30.3874 152.375 30.8032 151.943 33.0488L150.043 43.4448C149.957 43.9022 149.914 44.2765 149.914 44.5676C149.914 45.8567 150.648 46.1062 152.893 46.1062H163.172C164.165 46.1062 164.683 45.6903 164.813 44.8171L165.288 42.3636H159.069C158.421 42.3636 158.119 42.0309 158.249 41.4488L159.069 36.8745C159.199 36.2923 159.587 35.9597 160.235 35.9597H173.925C174.573 35.9597 174.875 36.2923 174.746 36.8745L173.018 46.2725C172.111 51.1794 171.377 52.8012 164.77 52.8012H146.891C142.658 52.8012 140.629 51.3874 140.629 48.1438C140.629 47.52 140.715 46.8547 140.844 46.1478L143.738 30.3458C144.558 25.6884 145.897 23.6924 152.202 23.6924H170.082C174.443 23.6924 176.214 24.7735 176.214 27.8923C176.214 28.5577 176.128 29.3478 175.955 30.2211L175.523 32.5498C175.437 33.1319 175.005 33.4646 174.357 33.4646H167.879C167.231 33.4646 166.929 33.1319 167.059 32.5498L167.231 31.6765C167.275 31.5517 167.275 31.3854 167.275 31.3022C167.275 30.6785 166.886 30.3874 166.065 30.3874Z" fill="url(#paint5_linear_16_130)"/>
<path d="M213.422 30.3458L210.528 46.1478C209.665 50.8052 208.456 52.8012 202.107 52.8012H183.667C179.434 52.8012 177.404 51.3874 177.404 48.1438C177.404 47.52 177.491 46.8547 177.62 46.1478L180.514 30.3458C181.334 25.6884 182.673 23.6924 188.978 23.6924H207.419C211.695 23.6924 213.595 25.1062 213.595 28.3914C213.595 28.9735 213.552 29.6389 213.422 30.3458ZM201.373 30.3874H192.563C189.756 30.3874 189.151 30.8032 188.719 33.0488L186.819 43.4448C186.733 43.9022 186.69 44.2765 186.69 44.5676C186.69 45.8567 187.424 46.1062 189.669 46.1062H198.479C201.33 46.1062 201.891 45.6903 202.28 43.4448L204.18 33.0488C204.266 32.5498 204.31 32.1755 204.31 31.8428C204.31 30.6369 203.619 30.3874 201.373 30.3874Z" fill="url(#paint6_linear_16_130)"/>
<path d="M228.242 24.6072L224.312 46.1062H243.185C243.832 46.1062 244.091 46.4389 244.005 47.021L243.098 51.8864C243.012 52.4685 242.623 52.8012 241.975 52.8012H215.372C214.725 52.8012 214.422 52.4685 214.509 51.8864L219.518 24.6072C219.648 24.025 220.037 23.6924 220.684 23.6924H227.378C228.026 23.6924 228.372 24.025 228.242 24.6072Z" fill="url(#paint7_linear_16_130)"/>
<path d="M282.019 32.4666L279.903 44.027C278.867 49.5992 276.06 52.8012 268.761 52.8012H247.341C246.693 52.8012 246.39 52.4685 246.477 51.8864L251.486 24.6072C251.616 24.025 252.005 23.6924 252.653 23.6924H274.073C279.299 23.6924 282.192 26.1458 282.192 30.429C282.192 31.0943 282.149 31.7597 282.019 32.4666ZM271.352 42.9042L273.08 33.5894C273.123 33.2151 273.166 32.8824 273.166 32.5914C273.166 31.0112 272.13 30.3874 269.711 30.3874H259.174L256.28 46.1062H266.818C269.711 46.1062 270.92 45.2745 271.352 42.9042Z" fill="url(#paint8_linear_16_130)"/>
<defs>
<linearGradient id="paint0_linear_16_130" x1="7.34438" y1="23.825" x2="50.568" y2="48.7802" gradientUnits="userSpaceOnUse">
<stop stop-color="#FFCF33"/>
<stop offset="1" stop-color="#FFC91A"/>
</linearGradient>
<linearGradient id="paint1_linear_16_130" x1="12.6225" y1="25.5618" x2="46.0157" y2="45.6447" gradientUnits="userSpaceOnUse">
<stop stop-color="#FFCF33"/>
<stop offset="1" stop-color="#FFC91A"/>
</linearGradient>
<linearGradient id="paint2_linear_16_130" x1="11.4709" y1="25.862" x2="46.1923" y2="45.9084" gradientUnits="userSpaceOnUse">
<stop stop-color="#FFCF33"/>
<stop offset="1" stop-color="#FFC91A"/>
</linearGradient>
<linearGradient id="paint3_linear_16_130" x1="176.153" y1="23.6924" x2="176.153" y2="52.8012" gradientUnits="userSpaceOnUse">
<stop stop-color="white"/>
<stop offset="1" stop-color="#DADADA"/>
</linearGradient>
<linearGradient id="paint4_linear_16_130" x1="176.153" y1="23.6924" x2="176.153" y2="52.8012" gradientUnits="userSpaceOnUse">
<stop stop-color="white"/>
<stop offset="1" stop-color="#DADADA"/>
</linearGradient>
<linearGradient id="paint5_linear_16_130" x1="176.153" y1="23.6924" x2="176.153" y2="52.8012" gradientUnits="userSpaceOnUse">
<stop stop-color="#FFCF33"/>
<stop offset="1" stop-color="#FFC91A"/>
</linearGradient>
<linearGradient id="paint6_linear_16_130" x1="176.153" y1="23.6924" x2="176.153" y2="52.8012" gradientUnits="userSpaceOnUse">
<stop stop-color="#FFCF33"/>
<stop offset="1" stop-color="#FFC91A"/>
</linearGradient>
<linearGradient id="paint7_linear_16_130" x1="176.153" y1="23.6924" x2="176.153" y2="52.8012" gradientUnits="userSpaceOnUse">
<stop stop-color="#FFCF33"/>
<stop offset="1" stop-color="#FFC91A"/>
</linearGradient>
<linearGradient id="paint8_linear_16_130" x1="176.153" y1="23.6924" x2="176.153" y2="52.8012" gradientUnits="userSpaceOnUse">
<stop stop-color="#FFCF33"/>
<stop offset="1" stop-color="#FFC91A"/>
</linearGradient>
</defs>
</svg>
