<?xml version="1.0" encoding="UTF-8"?> <svg xmlns:xlink="http://www.w3.org/1999/xlink" xmlns="http://www.w3.org/2000/svg" width="100" height="40" viewBox="0 0 100 40" fill="none"><g clip-path="url(#clip0_9591_101974_header-logo)" fill="none"><g clip-path="url(#clip1_9591_101974_header-logo)" fill="none"><path d="M46.92 26.6C46.7733 26.6 46.66 26.5533 46.58 26.46C46.5133 26.3666 46.4933 26.2466 46.52 26.1L49.28 13.1C49.3067 12.9533 49.38 12.8333 49.5 12.74C49.62 12.6466 49.7533 12.6 49.9 12.6H55.34C57.06 12.6 58.3267 13 59.14 13.8C59.9667 14.5866 60.2267 15.7066 59.92 17.16C59.72 18.1066 59.32 18.9066 58.72 19.56C58.1333 20.2133 57.4333 20.7066 56.62 21.04L58.32 25.96C58.3333 26 58.34 26.0333 58.34 26.06C58.34 26.0866 58.3333 26.1266 58.32 26.18C58.3067 26.2866 58.2467 26.3866 58.14 26.48C58.0333 26.56 57.92 26.6 57.8 26.6H55.16C54.9067 26.6 54.7333 26.54 54.64 26.42C54.56 26.2866 54.5 26.1666 54.46 26.06L53.12 21.66H51.06L50.12 26.1C50.0933 26.2466 50.02 26.3666 49.9 26.46C49.78 26.5533 49.6467 26.6 49.5 26.6H46.92ZM51.66 18.84H53.98C54.6067 18.84 55.1067 18.6866 55.48 18.38C55.8533 18.0733 56.1 17.6533 56.22 17.12C56.3267 16.6 56.26 16.18 56.02 15.86C55.7933 15.54 55.3533 15.38 54.7 15.38H52.4L51.66 18.84ZM59.2081 26.6C59.0481 26.6 58.9348 26.5333 58.8681 26.4C58.8015 26.2666 58.8081 26.1333 58.8881 26L66.3081 13.16C66.3881 13.0133 66.5015 12.8866 66.6481 12.78C66.7948 12.66 66.9815 12.6 67.2081 12.6H70.2881C70.5148 12.6 70.6748 12.66 70.7681 12.78C70.8748 12.8866 70.9348 13.0133 70.9481 13.16L72.9081 26C72.9481 26.1866 72.9148 26.3333 72.8081 26.44C72.7015 26.5466 72.5815 26.6 72.4481 26.6H70.0281C69.8281 26.6 69.6815 26.5533 69.5881 26.46C69.5081 26.3666 69.4548 26.26 69.4281 26.14L69.0881 24.14H63.7481L62.5481 26.18C62.4815 26.2733 62.3881 26.3666 62.2681 26.46C62.1615 26.5533 62.0081 26.6 61.8081 26.6H59.2081ZM65.1681 21.26H68.8881L68.1481 15.98L65.1681 21.26ZM77.1317 26.6C76.9051 26.6 76.7317 26.54 76.6117 26.42C76.5051 26.3 76.4451 26.16 76.4317 26L75.0717 13.14C75.0584 12.9666 75.0984 12.8333 75.1917 12.74C75.2851 12.6466 75.4051 12.6 75.5517 12.6H77.9517C78.1651 12.6 78.3184 12.66 78.4117 12.78C78.5051 12.8866 78.5584 13 78.5717 13.12L79.4317 22.36L84.2317 13.12C84.2851 13 84.3784 12.8866 84.5117 12.78C84.6451 12.66 84.8184 12.6 85.0317 12.6H87.7117C87.8717 12.6 87.9717 12.6666 88.0117 12.8C88.0651 12.92 88.0584 13.0533 87.9917 13.2L81.1917 26C81.1117 26.16 80.9917 26.3 80.8317 26.42C80.6851 26.54 80.4917 26.6 80.2517 26.6H77.1317ZM87.5189 26.6C87.3856 26.6 87.2789 26.5533 87.1989 26.46C87.1189 26.3666 87.0922 26.2466 87.1189 26.1L89.8789 13.1C89.9056 12.9533 89.9789 12.8333 90.0989 12.74C90.2189 12.6466 90.3456 12.6 90.4789 12.6H99.8189C99.9656 12.6 100.072 12.6466 100.139 12.74C100.219 12.8333 100.246 12.9533 100.219 13.1L99.8389 14.98C99.8122 15.1266 99.7389 15.2466 99.6189 15.34C99.4989 15.4333 99.3656 15.48 99.2189 15.48H92.8389L92.2589 18.18H98.1789C98.3256 18.18 98.4389 18.2333 98.5189 18.34C98.5989 18.4333 98.6256 18.5533 98.5989 18.7L98.2189 20.44C98.1922 20.5733 98.1189 20.6933 97.9989 20.8C97.8922 20.8933 97.7656 20.94 97.6189 20.94H91.6789L91.0989 23.72H97.6189C97.7656 23.72 97.8722 23.7666 97.9389 23.86C98.0189 23.9533 98.0456 24.0733 98.0189 24.22L97.6189 26.1C97.5922 26.2466 97.5189 26.3666 97.3989 26.46C97.2922 26.5533 97.1656 26.6 97.0189 26.6H87.5189Z" fill="#FFFFFF"></path><path d="M46.92 26.6C46.7733 26.6 46.66 26.5533 46.58 26.46C46.5133 26.3666 46.4933 26.2466 46.52 26.1L49.28 13.1C49.3067 12.9533 49.38 12.8333 49.5 12.74C49.62 12.6466 49.7533 12.6 49.9 12.6H55.34C57.06 12.6 58.3267 13 59.14 13.8C59.9667 14.5866 60.2267 15.7066 59.92 17.16C59.72 18.1066 59.32 18.9066 58.72 19.56C58.1333 20.2133 57.4333 20.7066 56.62 21.04L58.32 25.96C58.3333 26 58.34 26.0333 58.34 26.06C58.34 26.0866 58.3333 26.1266 58.32 26.18C58.3067 26.2866 58.2467 26.3866 58.14 26.48C58.0333 26.56 57.92 26.6 57.8 26.6H55.16C54.9067 26.6 54.7333 26.54 54.64 26.42C54.56 26.2866 54.5 26.1666 54.46 26.06L53.12 21.66H51.06L50.12 26.1C50.0933 26.2466 50.02 26.3666 49.9 26.46C49.78 26.5533 49.6467 26.6 49.5 26.6H46.92ZM51.66 18.84H53.98C54.6067 18.84 55.1067 18.6866 55.48 18.38C55.8533 18.0733 56.1 17.6533 56.22 17.12C56.3267 16.6 56.26 16.18 56.02 15.86C55.7933 15.54 55.3533 15.38 54.7 15.38H52.4L51.66 18.84ZM59.2081 26.6C59.0481 26.6 58.9348 26.5333 58.8681 26.4C58.8015 26.2666 58.8081 26.1333 58.8881 26L66.3081 13.16C66.3881 13.0133 66.5015 12.8866 66.6481 12.78C66.7948 12.66 66.9815 12.6 67.2081 12.6H70.2881C70.5148 12.6 70.6748 12.66 70.7681 12.78C70.8748 12.8866 70.9348 13.0133 70.9481 13.16L72.9081 26C72.9481 26.1866 72.9148 26.3333 72.8081 26.44C72.7015 26.5466 72.5815 26.6 72.4481 26.6H70.0281C69.8281 26.6 69.6815 26.5533 69.5881 26.46C69.5081 26.3666 69.4548 26.26 69.4281 26.14L69.0881 24.14H63.7481L62.5481 26.18C62.4815 26.2733 62.3881 26.3666 62.2681 26.46C62.1615 26.5533 62.0081 26.6 61.8081 26.6H59.2081ZM65.1681 21.26H68.8881L68.1481 15.98L65.1681 21.26ZM77.1317 26.6C76.9051 26.6 76.7317 26.54 76.6117 26.42C76.5051 26.3 76.4451 26.16 76.4317 26L75.0717 13.14C75.0584 12.9666 75.0984 12.8333 75.1917 12.74C75.2851 12.6466 75.4051 12.6 75.5517 12.6H77.9517C78.1651 12.6 78.3184 12.66 78.4117 12.78C78.5051 12.8866 78.5584 13 78.5717 13.12L79.4317 22.36L84.2317 13.12C84.2851 13 84.3784 12.8866 84.5117 12.78C84.6451 12.66 84.8184 12.6 85.0317 12.6H87.7117C87.8717 12.6 87.9717 12.6666 88.0117 12.8C88.0651 12.92 88.0584 13.0533 87.9917 13.2L81.1917 26C81.1117 26.16 80.9917 26.3 80.8317 26.42C80.6851 26.54 80.4917 26.6 80.2517 26.6H77.1317ZM87.5189 26.6C87.3856 26.6 87.2789 26.5533 87.1989 26.46C87.1189 26.3666 87.0922 26.2466 87.1189 26.1L89.8789 13.1C89.9056 12.9533 89.9789 12.8333 90.0989 12.74C90.2189 12.6466 90.3456 12.6 90.4789 12.6H99.8189C99.9656 12.6 100.072 12.6466 100.139 12.74C100.219 12.8333 100.246 12.9533 100.219 13.1L99.8389 14.98C99.8122 15.1266 99.7389 15.2466 99.6189 15.34C99.4989 15.4333 99.3656 15.48 99.2189 15.48H92.8389L92.2589 18.18H98.1789C98.3256 18.18 98.4389 18.2333 98.5189 18.34C98.5989 18.4333 98.6256 18.5533 98.5989 18.7L98.2189 20.44C98.1922 20.5733 98.1189 20.6933 97.9989 20.8C97.8922 20.8933 97.7656 20.94 97.6189 20.94H91.6789L91.0989 23.72H97.6189C97.7656 23.72 97.8722 23.7666 97.9389 23.86C98.0189 23.9533 98.0456 24.0733 98.0189 24.22L97.6189 26.1C97.5922 26.2466 97.5189 26.3666 97.3989 26.46C97.2922 26.5533 97.1656 26.6 97.0189 26.6H87.5189Z" fill="url(&quot;#paint0_linear_9591_101974_header-logo&quot;)"></path><path d="M46.92 26.6C46.7733 26.6 46.66 26.5533 46.58 26.46C46.5133 26.3666 46.4933 26.2466 46.52 26.1L49.28 13.1C49.3067 12.9533 49.38 12.8333 49.5 12.74C49.62 12.6466 49.7533 12.6 49.9 12.6H55.34C57.06 12.6 58.3267 13 59.14 13.8C59.9667 14.5866 60.2267 15.7066 59.92 17.16C59.72 18.1066 59.32 18.9066 58.72 19.56C58.1333 20.2133 57.4333 20.7066 56.62 21.04L58.32 25.96C58.3333 26 58.34 26.0333 58.34 26.06C58.34 26.0866 58.3333 26.1266 58.32 26.18C58.3067 26.2866 58.2467 26.3866 58.14 26.48C58.0333 26.56 57.92 26.6 57.8 26.6H55.16C54.9067 26.6 54.7333 26.54 54.64 26.42C54.56 26.2866 54.5 26.1666 54.46 26.06L53.12 21.66H51.06L50.12 26.1C50.0933 26.2466 50.02 26.3666 49.9 26.46C49.78 26.5533 49.6467 26.6 49.5 26.6H46.92ZM51.66 18.84H53.98C54.6067 18.84 55.1067 18.6866 55.48 18.38C55.8533 18.0733 56.1 17.6533 56.22 17.12C56.3267 16.6 56.26 16.18 56.02 15.86C55.7933 15.54 55.3533 15.38 54.7 15.38H52.4L51.66 18.84ZM59.2081 26.6C59.0481 26.6 58.9348 26.5333 58.8681 26.4C58.8015 26.2666 58.8081 26.1333 58.8881 26L66.3081 13.16C66.3881 13.0133 66.5015 12.8866 66.6481 12.78C66.7948 12.66 66.9815 12.6 67.2081 12.6H70.2881C70.5148 12.6 70.6748 12.66 70.7681 12.78C70.8748 12.8866 70.9348 13.0133 70.9481 13.16L72.9081 26C72.9481 26.1866 72.9148 26.3333 72.8081 26.44C72.7015 26.5466 72.5815 26.6 72.4481 26.6H70.0281C69.8281 26.6 69.6815 26.5533 69.5881 26.46C69.5081 26.3666 69.4548 26.26 69.4281 26.14L69.0881 24.14H63.7481L62.5481 26.18C62.4815 26.2733 62.3881 26.3666 62.2681 26.46C62.1615 26.5533 62.0081 26.6 61.8081 26.6H59.2081ZM65.1681 21.26H68.8881L68.1481 15.98L65.1681 21.26ZM77.1317 26.6C76.9051 26.6 76.7317 26.54 76.6117 26.42C76.5051 26.3 76.4451 26.16 76.4317 26L75.0717 13.14C75.0584 12.9666 75.0984 12.8333 75.1917 12.74C75.2851 12.6466 75.4051 12.6 75.5517 12.6H77.9517C78.1651 12.6 78.3184 12.66 78.4117 12.78C78.5051 12.8866 78.5584 13 78.5717 13.12L79.4317 22.36L84.2317 13.12C84.2851 13 84.3784 12.8866 84.5117 12.78C84.6451 12.66 84.8184 12.6 85.0317 12.6H87.7117C87.8717 12.6 87.9717 12.6666 88.0117 12.8C88.0651 12.92 88.0584 13.0533 87.9917 13.2L81.1917 26C81.1117 26.16 80.9917 26.3 80.8317 26.42C80.6851 26.54 80.4917 26.6 80.2517 26.6H77.1317ZM87.5189 26.6C87.3856 26.6 87.2789 26.5533 87.1989 26.46C87.1189 26.3666 87.0922 26.2466 87.1189 26.1L89.8789 13.1C89.9056 12.9533 89.9789 12.8333 90.0989 12.74C90.2189 12.6466 90.3456 12.6 90.4789 12.6H99.8189C99.9656 12.6 100.072 12.6466 100.139 12.74C100.219 12.8333 100.246 12.9533 100.219 13.1L99.8389 14.98C99.8122 15.1266 99.7389 15.2466 99.6189 15.34C99.4989 15.4333 99.3656 15.48 99.2189 15.48H92.8389L92.2589 18.18H98.1789C98.3256 18.18 98.4389 18.2333 98.5189 18.34C98.5989 18.4333 98.6256 18.5533 98.5989 18.7L98.2189 20.44C98.1922 20.5733 98.1189 20.6933 97.9989 20.8C97.8922 20.8933 97.7656 20.94 97.6189 20.94H91.6789L91.0989 23.72H97.6189C97.7656 23.72 97.8722 23.7666 97.9389 23.86C98.0189 23.9533 98.0456 24.0733 98.0189 24.22L97.6189 26.1C97.5922 26.2466 97.5189 26.3666 97.3989 26.46C97.2922 26.5533 97.1656 26.6 97.0189 26.6H87.5189Z" fill="url(&quot;#paint1_radial_9591_101974_header-logo&quot;)"></path><path d="M5.3002 26.8C3.96686 26.8 2.87353 26.6133 2.0202 26.24C1.1802 25.8666 0.573529 25.3733 0.200195 24.76C-0.159805 24.1333 -0.286471 23.4733 -0.179805 22.78C-0.153138 22.6733 -0.0998047 22.58 -0.0198047 22.5C0.0735287 22.4066 0.180195 22.36 0.300195 22.36H2.8602C3.04686 22.36 3.1802 22.3933 3.2602 22.46C3.3402 22.5266 3.4202 22.6133 3.5002 22.72C3.55353 22.92 3.6602 23.1133 3.8202 23.3C3.9802 23.4866 4.2002 23.64 4.4802 23.76C4.77353 23.8666 5.13353 23.92 5.5602 23.92C6.33353 23.92 6.95353 23.8 7.4202 23.56C7.88686 23.32 8.1602 22.9933 8.2402 22.58C8.3202 22.2866 8.26686 22.0466 8.0802 21.86C7.90686 21.66 7.59353 21.4866 7.1402 21.34C6.7002 21.18 6.10686 21.02 5.3602 20.86C4.38686 20.6466 3.58686 20.3533 2.9602 19.98C2.33353 19.5933 1.89353 19.1066 1.6402 18.52C1.4002 17.92 1.36686 17.2066 1.5402 16.38C1.80686 15.1533 2.46686 14.1866 3.5202 13.48C4.57353 12.76 5.9402 12.4 7.6202 12.4C8.48686 12.4 9.25353 12.52 9.9202 12.76C10.6002 13 11.1669 13.32 11.6202 13.72C12.0735 14.12 12.4002 14.5466 12.6002 15C12.8002 15.44 12.8669 15.8733 12.8002 16.3C12.7869 16.4066 12.7335 16.5066 12.6402 16.6C12.5469 16.68 12.4402 16.72 12.3202 16.72H9.6402C9.50686 16.72 9.38686 16.6933 9.2802 16.64C9.18686 16.5866 9.10686 16.5 9.0402 16.38C9.0402 16.0866 8.88686 15.8333 8.5802 15.62C8.27353 15.3933 7.86686 15.28 7.3602 15.28C6.78686 15.28 6.30686 15.3866 5.9202 15.6C5.53353 15.8 5.29353 16.1133 5.2002 16.54C5.13353 16.8066 5.16686 17.04 5.3002 17.24C5.44686 17.44 5.71353 17.6133 6.1002 17.76C6.5002 17.9066 7.04686 18.06 7.7402 18.22C8.91353 18.4466 9.83353 18.7533 10.5002 19.14C11.1669 19.5133 11.6135 19.9866 11.8402 20.56C12.0802 21.1333 12.1135 21.8333 11.9402 22.66C11.6469 24.02 10.9335 25.0533 9.8002 25.76C8.6802 26.4533 7.1802 26.8 5.3002 26.8ZM13.5824 26.6C13.449 26.6 13.3424 26.5533 13.2624 26.46C13.1824 26.3666 13.1557 26.2466 13.1824 26.1L15.9424 13.1C15.969 12.9533 16.0357 12.8333 16.1424 12.74C16.2624 12.6466 16.389 12.6 16.5224 12.6H19.0624C19.209 12.6 19.3224 12.6466 19.4024 12.74C19.4824 12.8333 19.509 12.9533 19.4824 13.1L18.5424 17.46L22.9824 12.98C23.0624 12.9 23.169 12.82 23.3024 12.74C23.4357 12.6466 23.6157 12.6 23.8424 12.6H26.8024C26.989 12.6 27.1024 12.6866 27.1424 12.86C27.1957 13.02 27.1624 13.1533 27.0424 13.26L20.9224 19.56L24.7024 25.94C24.809 26.1133 24.8024 26.2666 24.6824 26.4C24.5624 26.5333 24.429 26.6 24.2824 26.6H21.4824C21.269 26.6 21.109 26.56 21.0024 26.48C20.8957 26.4 20.8157 26.3066 20.7624 26.2L17.7624 21.2L16.7024 26.1C16.6757 26.2466 16.609 26.3666 16.5024 26.46C16.3957 26.5533 16.269 26.6 16.1224 26.6H13.5824ZM26.7074 26.6C26.5607 26.6 26.4474 26.5533 26.3674 26.46C26.2874 26.3666 26.2607 26.2466 26.2874 26.1L29.0674 13.1C29.094 12.9533 29.1674 12.8333 29.2874 12.74C29.4074 12.6466 29.534 12.6 29.6674 12.6H32.3674C32.5007 12.6 32.6074 12.6466 32.6874 12.74C32.7674 12.8333 32.794 12.9533 32.7674 13.1L29.9874 26.1C29.9607 26.2466 29.8874 26.3666 29.7674 26.46C29.6607 26.5533 29.5407 26.6 29.4074 26.6H26.7074ZM33.1918 26.6C33.0584 26.6 32.9518 26.5533 32.8718 26.46C32.7918 26.3666 32.7651 26.2466 32.7918 26.1L35.5518 13.1C35.5784 12.9533 35.6451 12.8333 35.7518 12.74C35.8718 12.6466 36.0051 12.6 36.1518 12.6H38.2718C38.4851 12.6 38.6318 12.6466 38.7118 12.74C38.7918 12.8333 38.8451 12.9133 38.8718 12.98L42.1318 20.72L43.7518 13.1C43.7784 12.9533 43.8518 12.8333 43.9718 12.74C44.0918 12.6466 44.2184 12.6 44.3518 12.6H46.7518C46.8984 12.6 47.0051 12.6466 47.0718 12.74C47.1518 12.8333 47.1784 12.9533 47.1518 13.1L44.3918 26.1C44.3651 26.2333 44.2918 26.3533 44.1718 26.46C44.0651 26.5533 43.9384 26.6 43.7918 26.6H41.6718C41.4584 26.6 41.3118 26.5533 41.2318 26.46C41.1518 26.3533 41.0984 26.2733 41.0718 26.22L37.7718 18.76L36.1918 26.1C36.1651 26.2466 36.0918 26.3666 35.9718 26.46C35.8651 26.5533 35.7384 26.6 35.5918 26.6H33.1918Z" fill="url(&quot;#paint2_radial_9591_101974_header-logo&quot;)"></path><path d="M5.3002 26.8C3.96686 26.8 2.87353 26.6133 2.0202 26.24C1.1802 25.8666 0.573529 25.3733 0.200195 24.76C-0.159805 24.1333 -0.286471 23.4733 -0.179805 22.78C-0.153138 22.6733 -0.0998047 22.58 -0.0198047 22.5C0.0735287 22.4066 0.180195 22.36 0.300195 22.36H2.8602C3.04686 22.36 3.1802 22.3933 3.2602 22.46C3.3402 22.5266 3.4202 22.6133 3.5002 22.72C3.55353 22.92 3.6602 23.1133 3.8202 23.3C3.9802 23.4866 4.2002 23.64 4.4802 23.76C4.77353 23.8666 5.13353 23.92 5.5602 23.92C6.33353 23.92 6.95353 23.8 7.4202 23.56C7.88686 23.32 8.1602 22.9933 8.2402 22.58C8.3202 22.2866 8.26686 22.0466 8.0802 21.86C7.90686 21.66 7.59353 21.4866 7.1402 21.34C6.7002 21.18 6.10686 21.02 5.3602 20.86C4.38686 20.6466 3.58686 20.3533 2.9602 19.98C2.33353 19.5933 1.89353 19.1066 1.6402 18.52C1.4002 17.92 1.36686 17.2066 1.5402 16.38C1.80686 15.1533 2.46686 14.1866 3.5202 13.48C4.57353 12.76 5.9402 12.4 7.6202 12.4C8.48686 12.4 9.25353 12.52 9.9202 12.76C10.6002 13 11.1669 13.32 11.6202 13.72C12.0735 14.12 12.4002 14.5466 12.6002 15C12.8002 15.44 12.8669 15.8733 12.8002 16.3C12.7869 16.4066 12.7335 16.5066 12.6402 16.6C12.5469 16.68 12.4402 16.72 12.3202 16.72H9.6402C9.50686 16.72 9.38686 16.6933 9.2802 16.64C9.18686 16.5866 9.10686 16.5 9.0402 16.38C9.0402 16.0866 8.88686 15.8333 8.5802 15.62C8.27353 15.3933 7.86686 15.28 7.3602 15.28C6.78686 15.28 6.30686 15.3866 5.9202 15.6C5.53353 15.8 5.29353 16.1133 5.2002 16.54C5.13353 16.8066 5.16686 17.04 5.3002 17.24C5.44686 17.44 5.71353 17.6133 6.1002 17.76C6.5002 17.9066 7.04686 18.06 7.7402 18.22C8.91353 18.4466 9.83353 18.7533 10.5002 19.14C11.1669 19.5133 11.6135 19.9866 11.8402 20.56C12.0802 21.1333 12.1135 21.8333 11.9402 22.66C11.6469 24.02 10.9335 25.0533 9.8002 25.76C8.6802 26.4533 7.1802 26.8 5.3002 26.8ZM13.5824 26.6C13.449 26.6 13.3424 26.5533 13.2624 26.46C13.1824 26.3666 13.1557 26.2466 13.1824 26.1L15.9424 13.1C15.969 12.9533 16.0357 12.8333 16.1424 12.74C16.2624 12.6466 16.389 12.6 16.5224 12.6H19.0624C19.209 12.6 19.3224 12.6466 19.4024 12.74C19.4824 12.8333 19.509 12.9533 19.4824 13.1L18.5424 17.46L22.9824 12.98C23.0624 12.9 23.169 12.82 23.3024 12.74C23.4357 12.6466 23.6157 12.6 23.8424 12.6H26.8024C26.989 12.6 27.1024 12.6866 27.1424 12.86C27.1957 13.02 27.1624 13.1533 27.0424 13.26L20.9224 19.56L24.7024 25.94C24.809 26.1133 24.8024 26.2666 24.6824 26.4C24.5624 26.5333 24.429 26.6 24.2824 26.6H21.4824C21.269 26.6 21.109 26.56 21.0024 26.48C20.8957 26.4 20.8157 26.3066 20.7624 26.2L17.7624 21.2L16.7024 26.1C16.6757 26.2466 16.609 26.3666 16.5024 26.46C16.3957 26.5533 16.269 26.6 16.1224 26.6H13.5824ZM26.7074 26.6C26.5607 26.6 26.4474 26.5533 26.3674 26.46C26.2874 26.3666 26.2607 26.2466 26.2874 26.1L29.0674 13.1C29.094 12.9533 29.1674 12.8333 29.2874 12.74C29.4074 12.6466 29.534 12.6 29.6674 12.6H32.3674C32.5007 12.6 32.6074 12.6466 32.6874 12.74C32.7674 12.8333 32.794 12.9533 32.7674 13.1L29.9874 26.1C29.9607 26.2466 29.8874 26.3666 29.7674 26.46C29.6607 26.5533 29.5407 26.6 29.4074 26.6H26.7074ZM33.1918 26.6C33.0584 26.6 32.9518 26.5533 32.8718 26.46C32.7918 26.3666 32.7651 26.2466 32.7918 26.1L35.5518 13.1C35.5784 12.9533 35.6451 12.8333 35.7518 12.74C35.8718 12.6466 36.0051 12.6 36.1518 12.6H38.2718C38.4851 12.6 38.6318 12.6466 38.7118 12.74C38.7918 12.8333 38.8451 12.9133 38.8718 12.98L42.1318 20.72L43.7518 13.1C43.7784 12.9533 43.8518 12.8333 43.9718 12.74C44.0918 12.6466 44.2184 12.6 44.3518 12.6H46.7518C46.8984 12.6 47.0051 12.6466 47.0718 12.74C47.1518 12.8333 47.1784 12.9533 47.1518 13.1L44.3918 26.1C44.3651 26.2333 44.2918 26.3533 44.1718 26.46C44.0651 26.5533 43.9384 26.6 43.7918 26.6H41.6718C41.4584 26.6 41.3118 26.5533 41.2318 26.46C41.1518 26.3533 41.0984 26.2733 41.0718 26.22L37.7718 18.76L36.1918 26.1C36.1651 26.2466 36.0918 26.3666 35.9718 26.46C35.8651 26.5533 35.7384 26.6 35.5918 26.6H33.1918Z" fill="url(&quot;#paint3_linear_9591_101974_header-logo&quot;)"></path></g></g><defs><linearGradient id="paint0_linear_9591_101974_header-logo" x1="73" y1="33.7818" x2="73" y2="7.59998" gradientUnits="userSpaceOnUse"><stop stop-color="white"></stop><stop offset="0.0001" stop-color="#F8F8F8"></stop><stop offset="0.255956" stop-color="#7A7A7A"></stop><stop offset="0.46" stop-color="white"></stop></linearGradient><radialGradient id="paint1_radial_9591_101974_header-logo" cx="0" cy="0" r="1" gradientUnits="userSpaceOnUse" gradientTransform="translate(72.1215 28.5971) rotate(90) scale(13.2051 86.8092)"><stop stop-color="white"></stop><stop offset="0.06" stop-color="white" stop-opacity="0"></stop></radialGradient><radialGradient id="paint2_radial_9591_101974_header-logo" cx="0" cy="0" r="1" gradientUnits="userSpaceOnUse" gradientTransform="translate(32.8502 7.59998) rotate(90) scale(24.8 66.3)"><stop stop-color="#4FEA9F"></stop><stop offset="1" stop-color="#38644F"></stop><stop offset="1" stop-color="#152F22"></stop></radialGradient><linearGradient id="paint3_linear_9591_101974_header-logo" x1="32.8502" y1="28.1163" x2="32.8502" y2="12.4714" gradientUnits="userSpaceOnUse"><stop stop-color="#AEFFC5"></stop><stop offset="0.0001" stop-color="#308A59"></stop><stop offset="0.53" stop-color="#8AE8A4"></stop><stop offset="1" stop-color="#5CBE83"></stop></linearGradient><clipPath id="clip0_9591_101974_header-logo"><rect width="100" height="40" fill="white"></rect></clipPath><clipPath id="clip1_9591_101974_header-logo"><rect width="100" height="40" fill="white"></rect></clipPath><linearGradient id="paint0_linear_9591_101974_header-logo" x1="73" y1="33.7818" x2="73" y2="7.59998" gradientUnits="userSpaceOnUse"><stop stop-color="white"></stop><stop offset="0.0001" stop-color="#F8F8F8"></stop><stop offset="0.255956" stop-color="#7A7A7A"></stop><stop offset="0.46" stop-color="white"></stop></linearGradient><radialGradient id="paint1_radial_9591_101974_header-logo" cx="0" cy="0" r="1" gradientUnits="userSpaceOnUse" gradientTransform="translate(72.1215 28.5971) rotate(90) scale(13.2051 86.8092)"><stop stop-color="white"></stop><stop offset="0.06" stop-color="white" stop-opacity="0"></stop></radialGradient><radialGradient id="paint2_radial_9591_101974_header-logo" cx="0" cy="0" r="1" gradientUnits="userSpaceOnUse" gradientTransform="translate(32.8502 7.59998) rotate(90) scale(24.8 66.3)"><stop stop-color="#4FEA9F"></stop><stop offset="1" stop-color="#38644F"></stop><stop offset="1" stop-color="#152F22"></stop></radialGradient><linearGradient id="paint3_linear_9591_101974_header-logo" x1="32.8502" y1="28.1163" x2="32.8502" y2="12.4714" gradientUnits="userSpaceOnUse"><stop stop-color="#AEFFC5"></stop><stop offset="0.0001" stop-color="#308A59"></stop><stop offset="0.53" stop-color="#8AE8A4"></stop><stop offset="1" stop-color="#5CBE83"></stop></linearGradient></defs></svg> 